<svg width="14" height="15" viewBox="0 0 14 15" fill="none" xmlns="http://www.w3.org/2000/svg">
<path d="M13.7576 8.76389L12.4362 7.73056C12.4529 7.5712 12.4673 7.38492 12.4673 7.18783C12.4673 6.99074 12.4535 6.80446 12.4362 6.64511L13.7589 5.61118C14.0045 5.41709 14.0716 5.07264 13.9152 4.78572L12.541 2.40812C12.3942 2.13976 12.0726 2.00198 11.7461 2.12238L10.1868 2.74836C9.88789 2.53271 9.57458 2.35061 9.25051 2.20505L9.01329 0.551122C8.97434 0.237218 8.70118 0 8.37832 0H5.62277C5.29988 0 5.02734 0.237218 4.98898 0.54632L4.75117 2.20626C4.43727 2.34764 4.12879 2.52735 3.81668 2.74957L2.2532 2.12179C1.96024 2.00857 1.60981 2.13555 1.46424 2.40273L0.0882753 4.7833C-0.0740539 5.05767 -0.00697131 5.41409 0.244034 5.61298L1.5655 6.64631C1.54452 6.84818 1.53436 7.02371 1.53436 7.18845C1.53436 7.35319 1.54455 7.52869 1.5655 7.73117L0.242826 8.7651C-0.00278742 8.95978 -0.0692803 9.30423 0.0870678 9.59056L1.46126 11.9681C1.60804 12.2359 1.92671 12.3749 2.25617 12.2539L3.81547 11.6279C4.11379 11.843 4.42708 12.025 4.75117 12.1712L4.98839 13.8245C5.02731 14.1396 5.29988 14.3768 5.62336 14.3768H8.37891C8.7018 14.3768 8.97496 14.1396 9.01329 13.8305L9.2511 12.1712C9.565 12.0292 9.8729 11.8501 10.1856 11.6273L11.7491 12.2551C11.8246 12.2844 11.903 12.2994 11.9839 12.2994C12.2163 12.2994 12.4302 12.1724 12.538 11.9747L13.9182 9.58455C14.0716 9.3042 14.0044 8.95978 13.7576 8.76389ZM7.00053 9.58455C5.67907 9.58455 4.6044 8.50988 4.6044 7.18842C4.6044 5.86696 5.67907 4.79229 7.00053 4.79229C8.32199 4.79229 9.39666 5.86696 9.39666 7.18842C9.39666 8.50988 8.32199 9.58455 7.00053 9.58455Z" fill="white"/>
</svg>
